{"title":"Eruption.1977.DVDRip.x264.Iou1","uid":8642731,"size":733547369,"categoryP":"porn","categoryS":"movies","magnet":"?xt=urn:btih:a164e866f85a48442b5ca7cc00195237e452bdb7&amp;dn=Eruption.1977.DVDRip.x264.Iou1&amp;tr=udp%3A%2F%2Ftracker.openbittorrent.com%3A80&amp;tr=udp%3A%2F%2Fopen.demonii.com%3A1337&amp;tr=udp%3A%2F%2Ftracker.coppersurfer.tk%3A6969&amp;tr=udp%3A%2F%2Fexodus.desync.com%3A6969","seeders":0,"leechers":2,"uploader":"jaybee211","files":-1,"time":1372909699,"description":"Format                                   : MPEG-4\nFormat profile                           : Base Media / Version 2\nCodec ID                                 : mp42\nFile size                                : 700 MiB\nDuration                                 : 1h 22mn\nOverall bit rate mode                    : Variable\nOverall bit rate                         : 1 187 Kbps\n\nVideo\nID                                       : 2\nFormat                                   : AVC\nFormat/Info                              : Advanced Video Codec\nFormat profile                           : &lt;a class=&quot;__cf_email__&quot; href=&quot;/cdn-cgi/l/email-protection&quot; data-cfemail=&quot;0840616f6048443b2638&quot;&gt;[email&amp;#160;protected]&lt;/a&gt;&lt;script cf-hash='f9e31' type=&quot;text/javascript&quot;&gt;\n/* &lt;![CDATA[ */!function(){try{var t=&quot;currentScript&quot;in document?document.currentScript:function(){for(var t=document.getElementsByTagName(&quot;script&quot;),e=t.length;e--;)if(t[e].getAttribute(&quot;cf-hash&quot;))return t[e]}();if(t&amp;&amp;t.previousSibling){var e,r,n,i,c=t.previousSibling,a=c.getAttribute(&quot;data-cfemail&quot;);if(a){for(e=&quot;&quot;,r=parseInt(a.substr(0,2),16),n=2;a.length-n;n+=2)i=parseInt(a.substr(n,2),16)^r,e+=String.fromCharCode(i);e=document.createTextNode(e),c.parentNode.replaceChild(e,c)}}}catch(u){}}();/* ]]&gt; */&lt;/script&gt;\nFormat settings, CABAC                   : Yes\nFormat settings, ReFrames                : 3 frames\nCodec ID                                 : avc1\nCodec ID/Info                            : Advanced Video Coding\nDuration                                 : 1h 22mn\nBit rate mode                            : Variable\nBit rate                                 : 1 121 Kbps\nMaximum bit rate                         : 8 000 Kbps\nWidth                                    : 720 pixels\nHeight                                   : 540 pixels\nDisplay aspect ratio                     : 4:3\nFrame rate mode                          : Constant\nFrame rate                               : 25.000 fps\nStandard                                 : NTSC\nColor space                              : YUV\nChroma subsampling                       : 4:2:0\nBit depth                                : 8 bits\nScan type                                : Progressive\nBits/(Pixel*Frame)                       : 0.115\nStream size                              : 660 MiB (94%)\nWriting library                          : x264 core 112\n\nAudio\nID                                       : 1\nFormat                                   : AAC\nFormat/Info                              : Advanced Audio Codec\nFormat profile                           : LC\nCodec ID                                 : 40\nDuration                                 : 1h 22mn\nBit rate mode                            : Variable\nBit rate                                 : 63.9 Kbps\nMaximum bit rate                         : 576 Kbps\nChannel(s)                               : 2 channels\nChannel positions                        : Front: L R\nSampling rate                            : 48.0 KHz\nCompression mode                         : Lossy\nDelay relative to video                  : 40ms\nStream size                              : 37.6 MiB (5%)\nLangauge                                 : English\n\nIMDB. &lt;a href=&quot; http://www.imdb.com/title/tt0124491/&quot; rel=&quot;nofollow&quot; target=&quot;_NEW&quot;&gt; http://www.imdb.com/title/tt0124491/&lt;/a&gt;\n\nStoryline.\nSet in Ohau, Hawaii, Sandra is a wealthy heiress whom persuades insurance salesman, Peter, to sell her husband a $2 million life insurance policy, and then persuades Peter to kill him to get the money. The murder goes off without a hitch, but when a persistent investigator threatens to uncover the plot, Peter begins to suspect that Sandra may betray him and turns to her promiscuous teenage stepdaughter, Angie, to help turn the tables on her and Angie's boyfriend, Scott, whom is apparently in cahoots with Sandra.\n\nCovers. &lt;a href=&quot; http://bayimg.com/BanfLaAej&quot; rel=&quot;nofollow&quot; target=&quot;_NEW&quot;&gt; http://bayimg.com/BanfLaAej&lt;/a&gt;\n\nScreens. &lt;a href=&quot; http://bayimg.com/bANFmAAEj&quot; rel=&quot;nofollow&quot; target=&quot;_NEW&quot;&gt; http://bayimg.com/bANFmAAEj&lt;/a&gt;\n\nEnjoy.","torrent":{"xt":"urn:btih:a164e866f85a48442b5ca7cc00195237e452bdb7","amp;dn":"Eruption.1977.DVDRip.x264.Iou1","amp;tr":["udp%3A%2F%2Ftracker.openbittorrent.com%3A80","udp%3A%2F%2Fopen.demonii.com%3A1337","udp%3A%2F%2Ftracker.coppersurfer.tk%3A6969","udp%3A%2F%2Fexodus.desync.com%3A6969"],"infoHash":"a164e866f85a48442b5ca7cc00195237e452bdb7","infoHashBuffer":{"type":"Buffer","data":[161,100,232,102,248,90,72,68,43,92,167,204,0,25,82,55,228,82,189,183]},"announce":[],"urlList":[]}}